<svg width="100" height="58" viewBox="0 0 100 58" fill="none" xmlns="http://www.w3.org/2000/svg">
<path d="M86.2534 15.4207C66.1706 -4.66211 33.4966 -4.66211 13.4139 15.4207L0 28.8328L13.7466 42.5794C23.7872 52.62 36.9764 57.6419 50.1672 57.6419C63.3581 57.6419 76.5456 52.6217 86.5878 42.5794L100.002 29.1656L86.2534 15.4207ZM84.1976 40.1909C65.4324 58.9544 34.9003 58.9544 16.1351 40.1909L4.77703 28.8328L15.8024 17.8075C34.5676 -0.95603 65.0997 -0.95603 83.8649 17.8075L95.223 29.1656L84.1976 40.1909Z" fill="white"/>
<path d="M48.2635 15.4359C41.7432 15.4359 36.4392 20.7399 36.4392 27.2602C36.4392 28.1926 37.1959 28.9494 38.1284 28.9494C39.0608 28.9494 39.8176 28.1926 39.8176 27.2602C39.8176 22.6031 43.6064 18.8142 48.2635 18.8142C49.1959 18.8142 49.9527 18.0575 49.9527 17.125C49.9527 16.1926 49.1976 15.4359 48.2635 15.4359Z" fill="white"/>
<path d="M49.9527 6.98993C37.8446 6.98993 27.9932 16.8413 27.9932 28.9494C27.9932 41.0575 37.8446 50.9088 49.9527 50.9088C62.0608 50.9088 71.9121 41.0575 71.9121 28.9494C71.9121 16.8413 62.0625 6.98993 49.9527 6.98993ZM49.9527 47.5305C39.7078 47.5305 31.3716 39.1943 31.3716 28.9494C31.3716 18.7045 39.7078 10.3683 49.9527 10.3683C60.1976 10.3683 68.5338 18.7045 68.5338 28.9494C68.5338 39.1943 60.1993 47.5305 49.9527 47.5305Z" fill="white"/>
</svg>
